<svg width="96" height="40" viewBox="0 0 96 40" fill="none" xmlns="http://www.w3.org/2000/svg">
<g clip-path="url(#clip0)">
<path d="M95.2094 32.6761C95.2094 32.5634 95.2094 32.4507 95.3223 32.338C95.4353 32.2253 95.5482 32.2253 95.6611 32.2253C95.7741 32.2253 95.887 32.2253 96 32.338C96 32.4507 96 32.5634 96 32.6761V33.0141C96 33.1268 96 33.2394 95.887 33.3521C95.7741 33.4648 95.6611 33.4648 95.5482 33.4648C95.4353 33.4648 95.3223 33.4648 95.2094 33.3521C95.0964 33.2394 95.0964 33.1268 95.0964 33.0141V32.6761H95.2094ZM95.2094 34.7042C95.2094 34.5915 95.2094 34.4789 95.3223 34.3662C95.4353 34.2535 95.5482 34.2535 95.6611 34.2535C95.7741 34.2535 95.887 34.2535 96 34.3662C96.1129 34.4789 96.1129 34.5915 96.1129 34.7042V39.5493C96.1129 39.662 96.1129 39.7746 96 39.8873C95.887 40 95.7741 40 95.6611 40C95.5482 40 95.4353 40 95.3223 39.8873C95.2094 39.7746 95.2094 39.662 95.2094 39.5493V34.7042ZM90.24 34.7042C90.24 34.5915 90.24 34.4789 90.3529 34.3662C90.4659 34.2535 90.5788 34.2535 90.6917 34.2535C90.8047 34.2535 90.9176 34.2535 91.0306 34.3662C91.1435 34.4789 91.1435 34.5915 91.1435 34.7042V37.9718C91.1435 38.0845 91.1435 38.3099 91.2564 38.4225C91.3694 38.5352 91.3694 38.6479 91.4823 38.7606C91.5953 38.8732 91.7082 38.9859 91.8212 38.9859C91.9341 39.0986 92.16 39.0986 92.2729 39.0986C92.3858 39.0986 92.6117 39.0986 92.7247 38.9859C92.8376 38.8732 92.9506 38.8732 93.0635 38.7606C93.1764 38.6479 93.2894 38.5352 93.2894 38.4225C93.4023 38.3099 93.4023 38.0845 93.4023 37.9718V34.7042C93.4023 34.5915 93.4023 34.4789 93.5153 34.3662C93.6282 34.2535 93.7411 34.2535 93.8541 34.2535C93.967 34.2535 94.08 34.2535 94.1929 34.3662C94.3059 34.4789 94.3059 34.5915 94.3059 34.7042V37.9718C94.3059 38.3099 94.3059 38.5352 94.1929 38.7606C94.08 38.9859 93.967 39.2113 93.7411 39.4366C93.5153 39.662 93.2894 39.7746 93.0635 39.8873C92.8376 40 92.4988 40 92.2729 40C91.9341 40 91.7082 40 91.4823 39.8873C91.2564 39.7746 91.0306 39.662 90.8047 39.4366C90.5788 39.2113 90.4659 38.9859 90.3529 38.7606C90.24 38.5352 90.24 38.1972 90.24 37.9718V34.7042ZM84.5929 34.9296C84.5929 34.9296 84.5929 34.8169 84.5929 34.7042C84.5929 34.5915 84.5929 34.4789 84.7059 34.3662C84.8188 34.2535 84.9317 34.2535 85.0447 34.2535C85.1576 34.2535 85.1576 34.2535 85.2706 34.3662C85.3835 34.3662 85.3835 34.4789 85.3835 34.5915L87.0776 38.5352L88.7717 34.5915C88.8847 34.3662 88.9976 34.3662 89.2235 34.3662C89.3364 34.3662 89.4494 34.3662 89.5623 34.4789C89.6753 34.5915 89.6753 34.7042 89.6753 34.8169C89.6753 34.9296 89.6753 34.9296 89.6753 35.0422L87.5294 39.8873C87.4164 40.1127 87.3035 40.1127 87.0776 40.1127C86.8517 40.1127 86.7388 40 86.6259 39.8873L84.5929 34.9296ZM78.72 32.4507C78.8329 32.4507 78.8329 32.338 78.9459 32.338C79.0588 32.338 79.1717 32.338 79.1717 32.4507L79.9623 33.0141C80.0753 33.1268 80.1882 33.2394 80.1882 33.3521C80.1882 33.4648 80.1882 33.5775 80.0753 33.6901C79.9623 33.8028 79.8494 33.8028 79.7364 33.8028C79.6235 33.8028 79.5106 33.8028 79.5106 33.6901L79.0588 33.3521L78.607 33.6901C78.4941 33.6901 78.4941 33.8028 78.3812 33.8028C78.2682 33.8028 78.1553 33.8028 78.0423 33.6901C77.9294 33.5775 77.9294 33.4648 77.9294 33.3521C77.9294 33.2394 78.0423 33.1268 78.1553 33.0141L78.72 32.4507ZM78.9459 31.5493C78.9459 31.4366 78.8329 31.4366 78.8329 31.3239C78.8329 31.2113 78.8329 31.0986 78.9459 30.9859C79.0588 30.8732 79.1717 30.8732 79.2847 30.8732C79.3976 30.8732 79.6235 30.9859 79.6235 31.0986L80.0753 31.8873C80.0753 32 80.0753 32 80.0753 32.1127C80.0753 32.2253 80.0753 32.338 79.9623 32.4507C79.8494 32.5634 79.7364 32.5634 79.6235 32.5634C79.5106 32.5634 79.2847 32.4507 79.2847 32.338L78.9459 31.5493ZM77.8164 36.7324H80.1882V36.3944C80.1882 36.2817 80.1882 36.0563 80.0753 35.9437C79.9623 35.831 79.9623 35.7183 79.8494 35.6056C79.7364 35.493 79.6235 35.3803 79.5106 35.3803C79.3976 35.2676 79.1717 35.2676 79.0588 35.2676C78.9459 35.2676 78.72 35.2676 78.607 35.3803C78.4941 35.493 78.3812 35.493 78.2682 35.6056C78.1553 35.7183 78.0423 35.831 78.0423 35.9437C77.9294 36.0563 77.9294 36.2817 77.9294 36.3944V36.7324H77.8164ZM76.9129 36.2817C76.9129 35.9437 76.9129 35.7183 77.0259 35.493C77.1388 35.2676 77.2517 35.0422 77.4776 34.8169C77.7035 34.5915 77.9294 34.4789 78.1553 34.3662C78.3811 34.2535 78.72 34.2535 78.9459 34.2535C79.1717 34.2535 79.5106 34.2535 79.7364 34.3662C79.9623 34.4789 80.1882 34.5915 80.4141 34.8169C80.64 35.0422 80.7529 35.2676 80.8659 35.493C80.9788 35.7183 80.9788 36.0563 80.9788 36.2817V37.1831C80.9788 37.2958 80.9788 37.4084 80.8659 37.5211C80.7529 37.6338 80.64 37.6338 80.527 37.6338H77.7035V37.9718C77.7035 38.0845 77.7035 38.3099 77.8164 38.4225C77.9294 38.5352 77.9294 38.6479 78.0423 38.7606C78.1553 38.8732 78.2682 38.9859 78.3812 38.9859C78.4941 39.0986 78.72 39.0986 78.8329 39.0986C79.0588 39.0986 79.2847 38.9859 79.5106 38.8732C79.7364 38.7606 79.8494 38.5352 79.9623 38.3099C79.9623 38.1972 80.0753 38.1972 80.0753 38.0845C80.1882 38.0845 80.1882 37.9718 80.3011 37.9718C80.4141 37.9718 80.527 37.9718 80.64 38.0845C80.7529 38.1972 80.7529 38.3099 80.7529 38.4225V38.5352C80.64 38.8732 80.3012 39.2113 79.9623 39.4366C79.6235 39.662 79.2847 39.7746 78.8329 39.7746C78.4941 39.7746 78.2682 39.7746 78.0423 39.662C77.8164 39.5493 77.5906 39.4366 77.3647 39.2113C77.1388 38.9859 77.0259 38.7606 76.9129 38.5352C76.8 38.3099 76.8 37.9718 76.8 37.7465V36.2817H76.9129ZM71.3788 34.9296C71.3788 34.9296 71.3788 34.8169 71.3788 34.7042C71.3788 34.5915 71.3788 34.4789 71.4917 34.3662C71.6047 34.2535 71.7176 34.2535 71.8306 34.2535C71.9435 34.2535 71.9435 34.2535 72.0564 34.3662C72.1694 34.3662 72.1694 34.4789 72.1694 34.5915L73.8635 38.5352L75.5576 34.5915C75.6706 34.3662 75.7835 34.3662 76.0094 34.3662C76.1223 34.3662 76.2353 34.3662 76.3482 34.4789C76.4611 34.5915 76.4611 34.7042 76.4611 34.8169C76.4611 34.9296 76.4611 34.9296 76.4611 35.0422L74.3153 39.8873C74.2023 40.1127 74.0894 40.1127 73.8635 40.1127C73.6376 40.1127 73.5247 40 73.4117 39.8873L71.3788 34.9296ZM63.5859 36.2817C63.5859 35.9437 63.5859 35.7183 63.6988 35.493C63.8117 35.2676 63.9247 35.0422 64.1506 34.8169C64.3764 34.5915 64.6023 34.4789 64.8282 34.3662C65.0541 34.2535 65.3929 34.2535 65.6188 34.2535C65.9576 34.2535 66.1835 34.2535 66.4094 34.3662C66.6353 34.4789 66.8612 34.5915 67.087 34.8169C67.3129 35.0422 67.4259 35.2676 67.5388 35.493C67.6517 35.7183 67.6517 36.0563 67.6517 36.2817V39.5493C67.6517 39.662 67.6517 39.7746 67.5388 39.8873C67.4259 40 67.3129 40 67.2 40C67.087 40 66.9741 40 66.8612 39.8873C66.7482 39.7746 66.7482 39.662 66.7482 39.5493V36.2817C66.7482 36.169 66.7482 35.9437 66.6353 35.831C66.5223 35.7183 66.5223 35.6056 66.4094 35.493C66.2964 35.3803 66.1835 35.2676 66.0706 35.2676C65.9576 35.1549 65.7317 35.1549 65.6188 35.1549C65.5059 35.1549 65.28 35.1549 65.167 35.2676C65.0541 35.3803 64.9412 35.3803 64.8282 35.493C64.7153 35.6056 64.6023 35.7183 64.6023 35.831C64.4894 35.9437 64.4894 36.169 64.4894 36.2817V39.5493C64.4894 39.662 64.4894 39.7746 64.3764 39.8873C64.2635 40 64.1506 40 64.0376 40C63.9247 40 63.8117 40 63.6988 39.8873C63.5859 39.7746 63.5859 39.662 63.5859 39.5493V36.2817ZM59.52 37.9718C59.52 38.0845 59.52 38.3099 59.6329 38.4225C59.7459 38.5352 59.7459 38.6479 59.8588 38.7606C59.9717 38.8732 60.0847 38.9859 60.1976 38.9859C60.3106 39.0986 60.5365 39.0986 60.6494 39.0986C60.7623 39.0986 60.9882 39.0986 61.1012 38.9859C61.2141 38.8732 61.327 38.8732 61.44 38.7606C61.5529 38.6479 61.6659 38.5352 61.6659 38.4225C61.7788 38.3099 61.7788 38.0845 61.7788 37.9718V36.2817C61.7788 36.169 61.7788 35.9437 61.6659 35.831C61.5529 35.7183 61.5529 35.6056 61.44 35.493C61.327 35.3803 61.2141 35.2676 61.1012 35.2676C60.9882 35.1549 60.7623 35.1549 60.6494 35.1549C60.5365 35.1549 60.3106 35.1549 60.1976 35.2676C60.0847 35.3803 59.9717 35.3803 59.8588 35.493C59.7459 35.6056 59.6329 35.7183 59.6329 35.831C59.52 35.9437 59.52 36.169 59.52 36.2817V37.9718ZM58.6165 36.2817C58.6165 35.9437 58.6165 35.7183 58.7294 35.493C58.8423 35.2676 58.9553 35.0422 59.1812 34.8169C59.407 34.5915 59.6329 34.4789 59.8588 34.3662C60.0847 34.2535 60.4235 34.2535 60.6494 34.2535C60.8753 34.2535 61.2141 34.2535 61.44 34.3662C61.6659 34.4789 61.8917 34.5915 62.1176 34.8169C62.3435 35.0422 62.4565 35.2676 62.5694 35.493C62.6823 35.7183 62.6823 36.0563 62.6823 36.2817V39.5493C62.6823 39.662 62.6823 39.7746 62.5694 39.8873C62.4565 40 62.3435 40 62.2306 40C62.1176 40 62.0047 40 61.8917 39.8873C61.7788 39.7746 61.7788 39.7746 61.7788 39.662C61.44 39.8873 60.9882 40 60.5364 40C60.1976 40 59.9717 40 59.7459 39.8873C59.52 39.7746 59.2941 39.662 59.0682 39.4366C58.8423 39.2113 58.7294 38.9859 58.6165 38.7606C58.5035 38.5352 58.5035 38.1972 58.5035 37.9718V36.2817H58.6165ZM53.9859 32.6761C53.9859 32.5634 53.9859 32.4507 54.0988 32.338C54.2117 32.2253 54.3247 32.2253 54.4376 32.2253C54.5506 32.2253 54.6635 32.2253 54.7765 32.338C54.8894 32.4507 54.8894 32.5634 54.8894 32.6761V33.0141C54.8894 33.1268 54.8894 33.2394 54.7765 33.3521C54.6635 33.4648 54.5506 33.4648 54.4376 33.4648C54.3247 33.4648 54.2117 33.4648 54.0988 33.3521C53.9859 33.2394 53.9859 33.1268 53.9859 33.0141V32.6761ZM53.9859 34.7042C53.9859 34.5915 53.9859 34.4789 54.0988 34.3662C54.2117 34.2535 54.3247 34.2535 54.4376 34.2535C54.5506 34.2535 54.6635 34.2535 54.7765 34.3662C54.8894 34.4789 54.8894 34.5915 54.8894 34.7042V39.5493C54.8894 39.662 54.8894 39.7746 54.7765 39.8873C54.6635 40 54.5506 40 54.4376 40C54.3247 40 54.2117 40 54.0988 39.8873C53.9859 39.7746 53.9859 39.662 53.9859 39.5493V34.7042ZM52.2917 33.8028H50.0329C49.92 33.8028 49.807 33.8028 49.6941 33.6901C49.5812 33.5775 49.5812 33.4648 49.5812 33.3521C49.5812 33.2394 49.5812 33.1268 49.6941 33.0141C49.807 32.9014 49.92 32.9014 50.0329 32.9014H52.2917V32.6761C52.2917 32.5634 52.2917 32.4507 52.4047 32.338C52.5176 32.2253 52.6306 32.2253 52.7435 32.2253C52.8565 32.2253 52.9694 32.2253 53.0823 32.338C53.1953 32.4507 53.1953 32.5634 53.1953 32.6761V37.9718C53.1953 38.3099 53.1953 38.5352 53.0823 38.7606C52.9694 38.9859 52.8565 39.2113 52.6306 39.4366C52.4047 39.662 52.1788 39.7746 51.9529 39.8873C51.727 40 51.3882 40 51.1623 40C50.8235 40 50.5976 40 50.3717 39.8873C50.1459 39.7746 49.92 39.662 49.6941 39.4366C49.4682 39.2113 49.3553 38.9859 49.2423 38.7606C49.1294 38.5352 49.1294 38.1972 49.1294 37.9718V36.2817C49.1294 35.9437 49.1294 35.7183 49.2423 35.493C49.3553 35.2676 49.4682 35.0422 49.6941 34.8169C49.92 34.5915 50.1459 34.4789 50.3717 34.3662C50.5976 34.2535 50.9365 34.2535 51.1623 34.2535C51.3882 34.2535 51.6141 34.2535 51.84 34.3662C52.0659 34.4789 52.1788 34.4789 52.4047 34.7042V33.8028H52.2917ZM49.92 37.9718C49.92 38.0845 49.92 38.3099 50.0329 38.4225C50.1459 38.5352 50.1459 38.6479 50.2588 38.7606C50.3717 38.8732 50.4847 38.9859 50.5976 38.9859C50.7106 39.0986 50.9365 39.0986 51.0494 39.0986C51.1623 39.0986 51.3882 39.0986 51.5012 38.9859C51.6141 38.8732 51.727 38.8732 51.84 38.7606C51.9529 38.6479 52.0659 38.5352 52.0659 38.4225C52.1788 38.3099 52.1788 38.0845 52.1788 37.9718V36.2817C52.1788 36.169 52.1788 35.9437 52.0659 35.831C51.9529 35.7183 51.9529 35.6056 51.84 35.493C51.727 35.3803 51.6141 35.2676 51.5012 35.2676C51.3882 35.1549 51.1623 35.1549 51.0494 35.1549C50.9365 35.1549 50.7106 35.1549 50.5976 35.2676C50.4847 35.3803 50.3717 35.3803 50.2588 35.493C50.1459 35.6056 50.0329 35.7183 50.0329 35.831C49.92 35.9437 49.92 36.169 49.92 36.2817V37.9718Z" fill="white"/>
<path d="M31.1716 15.7747C31.1716 14.6479 31.3975 13.6338 31.8493 12.6197C32.301 11.6056 32.8657 10.8169 33.5434 10.0282C34.334 9.35212 35.1246 8.67606 36.141 8.33803C37.1575 7.88733 38.174 7.77465 39.3034 7.77465C40.4328 7.77465 41.4493 8 42.3528 8.33803C43.3693 8.78874 44.1599 9.35212 44.9504 10.0282C45.6281 10.7042 46.1928 11.6056 46.6446 12.6197C47.0963 13.6338 47.3222 14.6479 47.3222 15.7747V28.2817C47.3222 28.7324 47.0963 29.1831 46.8704 29.5211C46.5316 29.8592 46.1928 29.9718 45.741 29.9718C45.2893 29.9718 44.8375 29.8592 44.4987 29.5211C44.1599 29.1831 44.0469 28.8451 44.0469 28.2817V15.7747C44.0469 15.0986 43.934 14.5352 43.7081 13.9718C43.4822 13.4085 43.1434 12.9578 42.6916 12.507C42.2399 12.0563 41.7881 11.7183 41.2234 11.493C40.6587 11.2676 40.094 11.1549 39.4163 11.1549C38.7387 11.1549 38.174 11.2676 37.6093 11.493C37.0446 11.7183 36.5928 12.0563 36.141 12.507C35.6893 12.9578 35.3505 13.4085 35.1246 13.9718C34.8987 14.5352 34.7857 15.0986 34.7857 15.7747V28.2817C34.7857 28.7324 34.6728 29.1831 34.334 29.5211C33.9952 29.8592 33.6563 29.9718 33.2046 29.9718C32.7528 29.9718 32.301 29.8592 31.9622 29.5211C31.6234 29.1831 31.5105 28.8451 31.5105 28.2817V15.7747H31.1716Z" fill="white"/>
<path fill-rule="evenodd" clip-rule="evenodd" d="M22.8141 23.3239C23.7176 23.3239 24.5082 24.1127 24.5082 25.0141C24.5082 25.9155 23.7176 26.7042 22.8141 26.7042C21.9106 26.7042 21.12 25.9155 21.12 25.0141C21.12 24.1127 21.9106 23.3239 22.8141 23.3239ZM4.63059 23.3239C5.53412 23.3239 6.32471 24.1127 6.32471 25.0141C6.32471 25.9155 5.53412 26.7042 4.63059 26.7042C3.72706 26.7042 2.93647 25.9155 2.93647 25.0141C2.82353 24.1127 3.61412 23.3239 4.63059 23.3239ZM5.87294 9.23944H21.4588C23.4918 9.23944 25.1859 10.9296 25.1859 13.0704V20.2817C25.1859 20.3944 25.0729 20.507 24.96 20.507H2.48471C2.37176 20.507 2.25882 20.3944 2.25882 20.2817V13.0704C2.25882 11.0423 3.95294 9.23944 5.87294 9.23944ZM6.09882 4.39437H21.2329C21.6847 4.39437 22.0235 4.7324 22.0235 5.1831V6.53521H5.30824V5.1831C5.30824 4.7324 5.76 4.39437 6.09882 4.39437ZM8.01882 1.12676H19.4259C23.8306 1.12676 27.4447 5.63381 27.4447 11.0423V29.5211C27.4447 29.7465 27.3318 30.0845 27.1059 30.0845H0.338824C0.112941 30.0845 0 29.7465 0 29.5211V11.0423C0 5.52113 3.61412 1.12676 8.01882 1.12676Z" fill="white"/>
<path fill-rule="evenodd" clip-rule="evenodd" d="M3.38811 33.8028H4.85634C5.53399 33.8028 6.09869 33.1268 6.09869 32.338V30.5352H2.14575V32.338C2.14575 33.1268 2.71046 33.8028 3.38811 33.8028Z" fill="white"/>
<path fill-rule="evenodd" clip-rule="evenodd" d="M22.927 33.8028H24.3953C25.0729 33.8028 25.6376 33.1268 25.6376 32.338V30.5352H21.7976V32.338C21.7976 33.1268 22.2494 33.8028 22.927 33.8028Z" fill="white"/>
<path fill-rule="evenodd" clip-rule="evenodd" d="M6.55063 34.5916C7.22828 34.3662 8.01886 36.0563 9.71298 37.1831C11.4071 38.4225 13.8918 39.0986 17.0542 37.6338C18.2965 37.0704 20.1036 34.8169 20.1036 34.8169C20.1036 34.8169 21.12 34.0282 21.233 34.9296C21.3459 35.493 19.6518 37.5211 17.9577 38.5352C10.9553 42.5915 4.40475 35.3803 6.55063 34.5916Z" fill="white"/>
<path d="M92.6117 1.69014C92.6117 1.23944 92.7246 0.788733 93.0634 0.450704C93.5152 0.112676 93.854 0 94.3058 0C94.7575 0 95.0964 0.112676 95.4352 0.450704C95.887 0.788733 95.9999 1.23944 95.9999 1.69014V2.92958C95.9999 3.38028 95.887 3.83099 95.5481 4.16901C95.2093 4.50704 94.8705 4.61972 94.3058 4.61972C93.854 4.61972 93.5152 4.50704 93.1764 4.16901C92.8376 3.83099 92.6117 3.49296 92.6117 2.92958V1.69014ZM92.6117 9.46479C92.6117 9.01409 92.7246 8.56338 93.0634 8.22535C93.4023 7.88733 93.7411 7.77465 94.3058 7.77465C94.7575 7.77465 95.0964 7.88733 95.4352 8.22535C95.887 8.56338 95.9999 9.01409 95.9999 9.46479V28.0563C95.9999 28.507 95.887 28.9578 95.5481 29.2958C95.2093 29.6338 94.8705 29.7465 94.3058 29.7465C93.854 29.7465 93.5152 29.6338 93.1764 29.2958C92.8376 28.9578 92.6117 28.6197 92.6117 28.0563V9.46479ZM73.6376 9.46479C73.6376 9.01409 73.7505 8.56338 74.0893 8.22535C74.4282 7.88733 74.767 7.77465 75.3317 7.77465C75.7834 7.77465 76.1223 7.88733 76.4611 8.22535C76.7999 8.56338 76.9129 8.90141 76.9129 9.46479V21.9718C76.9129 22.6479 77.0258 23.2113 77.2517 23.7747C77.4776 24.338 77.8164 24.7887 78.2682 25.2394C78.7199 25.6901 79.1717 26.0282 79.7364 26.2535C80.3011 26.4789 80.8658 26.5916 81.5434 26.5916C82.2211 26.5916 82.7858 26.4789 83.3505 26.2535C83.9152 26.0282 84.4799 25.6901 84.8187 25.2394C85.2705 24.7887 85.6093 24.338 85.8352 23.7747C86.0611 23.2113 86.174 22.6479 86.174 21.9718V9.46479C86.174 9.01409 86.287 8.56338 86.6258 8.22535C86.9646 7.88733 87.3034 7.77465 87.8681 7.77465C88.3199 7.77465 88.6587 7.88733 88.9976 8.22535C89.3364 8.56338 89.4493 8.90141 89.4493 9.46479V21.9718C89.4493 23.0986 89.2234 24.1127 88.7717 25.0141C88.3199 26.0282 87.7552 26.8169 87.0776 27.6056C86.3999 28.2817 85.4964 28.9578 84.4799 29.2958C83.4634 29.7465 82.447 29.8592 81.4305 29.8592C80.3011 29.8592 79.2846 29.6338 78.2682 29.2958C77.2517 28.8451 76.4611 28.2817 75.6705 27.6056C74.8799 26.9296 74.3152 26.0282 73.9764 25.0141C73.5246 24 73.2987 22.9859 73.2987 21.9718V9.46479H73.6376ZM52.1788 10.1408C52.0658 9.91549 51.9529 9.69014 51.9529 9.46479C51.9529 9.01409 52.0658 8.67606 52.4046 8.33803C52.7435 8 53.0823 7.77465 53.647 7.77465C53.9858 7.77465 54.2117 7.88733 54.5505 8C54.7764 8.22535 55.0023 8.45071 55.2282 8.78873L61.7788 24.1127L68.3293 8.78873C68.6682 8.11268 69.1199 7.77465 69.9105 7.77465C70.3623 7.77465 70.814 8 71.1529 8.33803C71.4917 8.67606 71.6046 9.12676 71.6046 9.46479C71.6046 9.69014 71.6046 9.91549 71.4917 10.1408L63.3599 28.9578C63.0211 29.6338 62.5693 29.9718 61.7788 29.9718C60.9882 29.9718 60.4235 29.6338 60.1976 28.9578L52.1788 10.1408Z" fill="white"/>
</g>
<defs>
<clipPath id="clip0">
<rect width="96" height="40" fill="white"/>
</clipPath>
</defs>
</svg>
